<svg class="border shadow-md dark:border-slate-700" viewBox="0 0 756.8 756.8" style="width: 756.8px; height: 756.8px;" xmlns="http://www.w3.org/2000/svg" preserveAspectRatio="none"><rect class="bg" id="bg" x="0" y="0" width="756.8" height="756.8" fill="#ffffff"/><path d="M 0 -75.67999999999999 L 0 -75.68&#10;                L 50.45 -37.84&#10;                L 151.35999999999999 -75.68 L 151.35999999999999 -75.68&#10;                L 201.81 -37.84&#10;                L 302.71999999999997 -75.68 L 302.71999999999997 -75.68&#10;                L 380.72 -37.84&#10;                L 454.0799999999999 -75.68 L 454.0799999999999 -75.68&#10;                L 504.53 -37.84&#10;                L 605.4399999999999 -75.68 L 605.4399999999999 -75.68&#10;                L 655.89 -37.84&#10;                L 756.8 -75.68 L 756.8 -75.68&#10;                L 840.80 -20.68&#10;                L 908.16 -75.68  V 756.80 H 0 V -75.68 Z" fill="#52C41A"/><path d="M 0 0 L 0 0.00&#10;                L 60.00 57.00&#10;                L 151.35999999999999 0.00 L 151.35999999999999 0.00&#10;                L 257.36 67.00&#10;                L 302.71999999999997 0.00 L 302.71999999999997 0.00&#10;                L 398.72 68.00&#10;                L 454.0799999999999 0.00 L 454.0799999999999 0.00&#10;                L 504.53 72.00&#10;                L 605.4399999999999 0.00 L 605.4399999999999 0.00&#10;                L 655.89 37.84&#10;                L 756.8 0.00 L 756.8 0.00&#10;                L 807.25 40.00&#10;                L 908.16 0.00  V 756.80 H 0 V 0.00 Z" fill="#4bb717"/><path d="M 0 75.67999999999999 L 0 75.68&#10;                L 63.00 113.52&#10;                L 151.35999999999999 75.68 L 151.35999999999999 75.68&#10;                L 226.36 113.68&#10;                L 302.71999999999997 75.68 L 302.71999999999997 75.68&#10;                L 403.72 113.52&#10;                L 454.0799999999999 75.68 L 454.0799999999999 75.68&#10;                L 540.08 147.68&#10;                L 605.4399999999999 75.68 L 605.4399999999999 75.68&#10;                L 712.44 137.68&#10;                L 756.8 75.68 L 756.8 75.68&#10;                L 863.80 121.68&#10;                L 908.16 75.68  V 756.80 H 0 V 75.68 Z" fill="#44aa14"/><path d="M 0 151.35999999999999 L 0 151.36&#10;                L 50.45 189.20&#10;                L 151.35999999999999 151.36 L 151.35999999999999 151.36&#10;                L 237.36 210.36&#10;                L 302.71999999999997 151.36 L 302.71999999999997 151.36&#10;                L 364.72 189.20&#10;                L 454.0799999999999 151.36 L 454.0799999999999 151.36&#10;                L 504.53 208.36&#10;                L 605.4399999999999 151.36 L 605.4399999999999 151.36&#10;                L 655.89 211.36&#10;                L 756.8 151.36 L 756.8 151.36&#10;                L 807.25 189.20&#10;                L 908.16 151.36  V 756.80 H 0 V 151.36 Z" fill="#3d9d11"/><path d="M 0 227.03999999999996 L 0 227.04&#10;                L 92.00 295.04&#10;                L 151.35999999999999 227.04 L 151.35999999999999 227.04&#10;                L 201.81 264.88&#10;                L 302.71999999999997 227.04 L 302.71999999999997 227.04&#10;                L 353.17 264.88&#10;                L 454.0799999999999 227.04 L 454.0799999999999 227.04&#10;                L 542.08 264.88&#10;                L 605.4399999999999 227.04 L 605.4399999999999 227.04&#10;                L 655.89 264.88&#10;                L 756.8 227.04 L 756.8 227.04&#10;                L 807.25 264.88&#10;                L 908.16 227.04  V 756.80 H 0 V 227.04 Z" fill="#36900e"/><path d="M 0 302.71999999999997 L 0 302.72&#10;                L 94.00 340.56&#10;                L 151.35999999999999 302.72 L 151.35999999999999 302.72&#10;                L 201.81 340.56&#10;                L 302.71999999999997 302.72 L 302.71999999999997 302.72&#10;                L 353.17 352.72&#10;                L 454.0799999999999 302.72 L 454.0799999999999 302.72&#10;                L 511.08 340.56&#10;                L 605.4399999999999 302.72 L 605.4399999999999 302.72&#10;                L 655.89 354.72&#10;                L 756.8 302.72 L 756.8 302.72&#10;                L 807.25 376.72&#10;                L 908.16 302.72  V 756.80 H 0 V 302.72 Z" fill="#2f830b"/><path d="M 0 378.4 L 0 378.40&#10;                L 94.00 435.40&#10;                L 151.35999999999999 378.40 L 151.35999999999999 378.40&#10;                L 254.36 434.40&#10;                L 302.71999999999997 378.40 L 302.71999999999997 378.40&#10;                L 412.72 416.24&#10;                L 454.0799999999999 378.40 L 454.0799999999999 378.40&#10;                L 504.53 416.24&#10;                L 605.4399999999999 378.40 L 605.4399999999999 378.40&#10;                L 699.44 416.24&#10;                L 756.8 378.40 L 756.8 378.40&#10;                L 831.80 416.24&#10;                L 908.16 378.40  V 756.80 H 0 V 378.40 Z" fill="#287608"/><path d="M 0 454.0799999999999 L 0 454.08&#10;                L 91.00 491.92&#10;                L 151.35999999999999 454.08 L 151.35999999999999 454.08&#10;                L 201.81 493.08&#10;                L 302.71999999999997 454.08 L 302.71999999999997 454.08&#10;                L 361.72 491.92&#10;                L 454.0799999999999 454.08 L 454.0799999999999 454.08&#10;                L 504.53 503.08&#10;                L 605.4399999999999 454.08 L 605.4399999999999 454.08&#10;                L 655.89 500.08&#10;                L 756.8 454.08 L 756.8 454.08&#10;                L 867.80 511.08&#10;                L 908.16 454.08  V 756.80 H 0 V 454.08 Z" fill="#216905"/><path d="M 0 529.76 L 0 529.76&#10;                L 109.00 604.76&#10;                L 151.35999999999999 529.76 L 151.35999999999999 529.76&#10;                L 201.81 567.60&#10;                L 302.71999999999997 529.76 L 302.71999999999997 529.76&#10;                L 411.72 594.76&#10;                L 454.0799999999999 529.76 L 454.0799999999999 529.76&#10;                L 504.53 567.60&#10;                L 605.4399999999999 529.76 L 605.4399999999999 529.76&#10;                L 665.44 578.76&#10;                L 756.8 529.76 L 756.8 529.76&#10;                L 807.25 567.60&#10;                L 908.16 529.76  V 756.80 H 0 V 529.76 Z" fill="#1a5c02"/><path d="M 0 605.4399999999999 L 0 605.44&#10;                L 50.45 643.28&#10;                L 151.35999999999999 605.44 L 151.35999999999999 605.44&#10;                L 201.81 651.44&#10;                L 302.71999999999997 605.44 L 302.71999999999997 605.44&#10;                L 353.17 643.28&#10;                L 454.0799999999999 605.44 L 454.0799999999999 605.44&#10;                L 532.08 670.44&#10;                L 605.4399999999999 605.44 L 605.4399999999999 605.44&#10;                L 655.89 674.44&#10;                L 756.8 605.44 L 756.8 605.44&#10;                L 807.25 643.28&#10;                L 908.16 605.44  V 756.80 H 0 V 605.44 Z" fill="#134f00"/><path d="M 0 681.1199999999999 L 0 681.12&#10;                L 50.45 718.96&#10;                L 151.35999999999999 681.12 L 151.35999999999999 681.12&#10;                L 263.36 718.96&#10;                L 302.71999999999997 681.12 L 302.71999999999997 681.12&#10;                L 396.72 718.96&#10;                L 454.0799999999999 681.12 L 454.0799999999999 681.12&#10;                L 552.08 718.96&#10;                L 605.4399999999999 681.12 L 605.4399999999999 681.12&#10;                L 706.44 718.96&#10;                L 756.8 681.12 L 756.8 681.12&#10;                L 818.80 718.96&#10;                L 908.16 681.12  V 756.80 H 0 V 681.12 Z" fill="#0c4200"/></svg>